# xmcd
#
# Track frame offsets:
#	150
#	16496
#	33916
#	51250
#	77057
#	101345
#	115082
#	127397
#	143103
#	160759
#	184691
#	206019
#	221311
#
# Disc length: 3228 seconds
#
# Revision: 1
# Processed by: cddbd v1.5.2PL0 Copyright (c) Steve Scherf et al.
# Submitted via: audiograbber 1.83.01
#
DISCID=b00c9a0d
DTITLE=Cyndi Lauper - Memphis Blues
DYEAR=2010
DGENRE=Blues
TTITLE0=Just Your Fool (feat. Charlie Mussel White)
TTITLE1=Shattered Dreams (feat. Allen Toussaint)
TTITLE2=Early In The Mornin' (feat. Allen Toussaint and B. B. Kiog)
TTITLE3=Romance In The Dark
TTITLE4=How Blue Can You Get? (feat. Jonny Lang)
TTITLE5=Down Don't Bother Me (feat. Charlie Musselwhite)
TTITLE6=Don't Cry No More
TTITLE7=Rollin' And Tumblin' (feat. Ann Peebles)
TTITLE8=Down So Low
TTITLE9=Mother Earth (feat. Allen Toussaint)
TTITLE10=Crossroads (feat. Jonny Lang)
TTITLE11=Wild Women Don't Have The Blues
TTITLE12=I Don't Want To Cry (feat. Leo Gandelman)
EXTD=
EXTT0=
EXTT1=
EXTT2=
EXTT3=
EXTT4=
EXTT5=
EXTT6=
EXTT7=
EXTT8=
EXTT9=
EXTT10=
EXTT11=
EXTT12=
PLAYORDER=
